<?xml version="1.0" standalone="no"?>
<!DOCTYPE svg PUBLIC "-//W3C//DTD SVG 20010904//EN"
 "http://www.w3.org/TR/2001/REC-SVG-20010904/DTD/svg10.dtd">
<svg version="1.0" xmlns="http://www.w3.org/2000/svg"
 width="1197.000000pt" height="1197.000000pt" viewBox="0 0 1197.000000 1197.000000"
 preserveAspectRatio="xMidYMid meet">
<metadata>
Created by potrace 1.11, written by Peter Selinger 2001-2013
</metadata>
<g transform="translate(0.000000,1197.000000) scale(0.100000,-0.100000)"
fill="#000000" stroke="none">
<path d="M5800 11534 c0 -5 -46 -273 -102 -595 l-101 -586 -141 -17 c-78 -10
-202 -28 -276 -42 -115 -21 -136 -23 -145 -11 -5 8 -129 249 -275 535 l-265
520 -50 -15 c-126 -37 -415 -135 -420 -143 -3 -5 38 -273 90 -597 71 -434 92
-589 83 -592 -22 -7 -322 -159 -381 -193 l-57 -33 -425 425 -424 424 -73 -49
c-69 -48 -280 -205 -324 -242 l-22 -18 274 -525 c151 -288 274 -527 274 -531
0 -3 -77 -84 -171 -178 l-170 -172 -529 271 c-291 149 -534 269 -540 265 -15
-9 -121 -150 -217 -288 l-83 -120 427 -422 428 -422 -33 -59 c-18 -32 -70
-133 -114 -224 -45 -91 -82 -166 -83 -168 -1 -1 -261 38 -578 88 -317 49 -584
90 -595 90 -16 0 -28 -26 -70 -152 -55 -169 -97 -316 -91 -322 2 -2 242 -124
533 -271 l528 -268 -5 -36 c-3 -20 -17 -106 -31 -192 -13 -87 -28 -196 -32
-243 -4 -47 -9 -86 -11 -86 -2 0 -252 -45 -556 -100 -304 -55 -567 -103 -585
-106 l-32 -6 0 -233 c0 -174 3 -235 13 -242 6 -5 266 -47 577 -92 311 -46 574
-85 585 -87 18 -4 23 -23 43 -168 12 -89 37 -228 56 -309 l32 -148 -518 -296
c-285 -163 -518 -301 -518 -308 0 -29 132 -390 149 -408 6 -6 1037 179 1158
208 19 4 31 -12 99 -138 87 -161 145 -259 216 -364 26 -40 48 -77 48 -82 0 -6
-173 -216 -384 -467 l-384 -457 61 -76 c34 -42 97 -117 141 -168 78 -90 80
-92 105 -78 14 7 249 144 520 303 l495 290 50 -45 c184 -163 342 -293 459
-378 l27 -20 -201 -550 c-111 -303 -204 -557 -206 -566 -3 -11 22 -32 89 -71
149 -89 287 -160 297 -153 6 3 177 208 381 455 204 247 374 451 379 454 4 3
68 -19 142 -49 74 -30 212 -80 307 -111 l173 -57 -6 -421 c-3 -232 -7 -501
-10 -598 -5 -163 -4 -177 12 -182 52 -16 442 -81 448 -74 2 2 93 255 202 563
l199 560 294 -2 c233 -1 295 -4 300 -15 4 -7 87 -262 185 -567 l179 -553 73 6
c77 7 274 38 359 56 l51 11 7 76 c3 42 6 313 6 603 l0 526 53 13 c28 7 139 42
245 78 132 44 197 61 205 54 7 -5 165 -221 352 -480 187 -258 345 -470 351
-471 20 0 454 222 454 233 0 1 -85 258 -190 572 -139 418 -187 571 -177 576
37 21 242 169 304 219 l71 59 483 -354 c357 -261 487 -351 499 -345 25 14 350
348 350 360 0 7 -157 225 -350 486 -192 261 -350 477 -350 481 0 3 26 40 58
82 32 42 96 129 141 194 45 64 86 115 89 113 15 -9 1113 -366 1126 -366 12 0
236 424 236 448 0 5 -215 164 -477 352 -263 189 -481 346 -485 349 -4 3 12 60
36 126 24 66 61 177 82 248 l37 127 126 1 c69 1 340 5 601 8 l475 6 13 70 c24
134 62 409 56 414 -3 3 -259 87 -570 186 l-565 180 -4 275 c-2 151 -6 284 -7
294 -3 17 68 45 563 224 l566 205 -17 111 c-10 61 -28 164 -41 230 l-23 119
-430 -7 c-237 -3 -507 -9 -601 -12 l-170 -6 -58 178 c-31 99 -83 239 -114 313
-47 114 -54 136 -41 145 8 6 215 179 461 384 l446 374 -30 61 c-17 33 -67 120
-110 193 l-79 133 -38 -13 c-43 -16 -1049 -391 -1073 -401 -12 -4 -34 19 -86
88 -94 124 -202 253 -296 353 -42 45 -77 86 -77 90 0 5 135 241 299 524 l299
515 -31 29 c-90 81 -294 246 -304 246 -10 0 -472 -387 -904 -757 -15 -12 -29
-6 -115 50 -124 81 -268 164 -395 228 -55 27 -99 52 -99 54 0 3 47 265 105
583 58 317 105 582 105 588 0 12 -125 63 -308 125 l-112 38 -14 -22 c-8 -12
-139 -242 -291 -512 -152 -269 -281 -494 -285 -499 -5 -5 -85 7 -187 27 -98
20 -234 44 -303 53 -69 10 -128 20 -132 23 -4 4 -48 269 -97 589 -49 321 -92
586 -95 590 -10 10 -476 16 -476 6z m542 -1679 c611 -58 1186 -252 1697 -573
808 -506 1394 -1274 1670 -2192 197 -651 213 -1374 45 -2045 -274 -1100 -1018
-2026 -2036 -2536 -578 -289 -1180 -423 -1838 -406 -593 15 -1140 154 -1665
422 -1549 792 -2384 2518 -2043 4225 237 1189 1037 2216 2133 2741 442 211
855 321 1405 372 106 10 495 5 632 -8z"/>
<path d="M6340 8849 c-152 -9 -355 -44 -509 -88 -140 -41 -291 -100 -298 -117
-7 -19 19 -57 62 -89 27 -22 67 -34 197 -60 366 -73 627 -195 840 -394 107
-100 180 -191 216 -268 23 -50 27 -71 27 -148 0 -168 168 15 -1704 -1860
-1802 -1804 -1707 -1704 -1746 -1851 -21 -79 -21 -227 0 -301 57 -198 220
-356 415 -404 71 -17 200 -17 270 0 65 16 159 61 215 104 22 17 711 700 1530
1518 l1490 1488 75 22 c54 17 100 23 165 23 162 0 287 -54 406 -173 83 -84
127 -160 155 -271 20 -80 14 -231 -11 -304 l-18 -48 147 -147 146 -146 627
628 628 627 -146 146 -145 145 -62 -20 c-309 -104 -644 87 -727 414 -21 84
-19 196 6 285 l20 74 -338 336 c-186 185 -373 364 -415 399 -266 214 -610 379
-918 440 -206 40 -379 52 -600 40z"/>
<path d="M3705 8735 c-121 -27 -249 -88 -353 -169 -90 -70 -276 -266 -330
-349 -102 -157 -137 -280 -130 -461 4 -111 6 -118 46 -198 41 -82 49 -91 966
-1008 l926 -925 110 110 110 110 -890 890 c-518 518 -890 898 -890 908 0 23
44 67 67 67 10 0 390 -372 908 -890 l890 -890 119 119 119 120 -131 138 c-72
76 -471 478 -886 893 -539 538 -756 761 -756 777 0 24 43 63 69 63 9 0 416
-400 906 -890 l890 -890 117 117 c65 65 118 122 118 128 0 5 -398 408 -885
895 -632 632 -885 891 -885 907 0 21 42 63 64 63 6 0 413 -402 903 -892 l893
-893 110 110 110 110 -937 936 c-871 869 -942 938 -999 962 -110 48 -245 60
-369 32z"/>
<path d="M6380 5255 l-185 -186 45 -42 c25 -23 286 -264 580 -534 308 -283
554 -516 579 -550 56 -75 89 -141 141 -283 23 -63 46 -122 50 -130 5 -9 135
-77 290 -150 l281 -134 118 120 119 119 -133 280 c-73 154 -139 283 -147 287
-7 4 -76 31 -153 59 -77 28 -172 71 -212 95 -86 54 -156 125 -738 762 -236
259 -435 471 -440 471 -6 1 -93 -82 -195 -184z"/>
</g>
</svg>
